<?xml version="1.0" encoding="UTF-8" standalone="no"?>
<!-- Created with Inkscape (http://www.inkscape.org/) -->

<svg
  height="79.951439mm"
  id="svg5"
  version="1.1"
  viewBox="0 0 75.995522 79.951439"
  width="75.995522mm"
  xml:space="preserve"
  xmlns="http://www.w3.org/2000/svg"
  xmlns:inkscape="http://www.inkscape.org/namespaces/inkscape"
  xmlns:sodipodi="http://sodipodi.sourceforge.net/DTD/sodipodi-0.dtd"
><sodipodi:namedview
     bordercolor="#000000"
     borderopacity="0.25"
     id="namedview7"
     inkscape:current-layer="layer1"
     inkscape:cx="396.76207"
     inkscape:cy="562.35285"
     inkscape:deskcolor="#d1d1d1"
     inkscape:document-units="mm"
     inkscape:pagecheckerboard="0"
     inkscape:pageopacity="0.0"
     inkscape:showpageshadow="2"
     inkscape:window-height="2096"
     inkscape:window-maximized="1"
     inkscape:window-width="3840"
     inkscape:window-x="0"
     inkscape:window-y="0"
     inkscape:zoom="0.914906"
     pagecolor="#ffffff"
     showgrid="false" /><defs
     id="defs2" /><g
     id="layer1"
     inkscape:groupmode="layer"
     inkscape:label="mkne-base-layer"
     transform="translate(-67.00892,-108.80861)"><g
       id="g117"
       transform="matrix(0.26458333,0,0,0.26458333,66.876631,108.83711)"><path
         d="m 100.30907,298.86378 -3.190936,-3.20718 -5.244475,-0.67281 -5.244475,-0.6728 -2.564592,1.33834 -2.564592,1.33835 -6.934276,0.006 -6.934275,0.006 -4.415631,-2.13757 -4.415631,-2.13757 -3.43402,1.63757 -3.434021,1.63757 H 48.555167 45.178189 L 38.839094,294.01258 32.5,292.0258 28.61987,292.0129 24.73974,292 l -5.20586,-5.25 -5.20586,-5.25 -2.330607,-6 -2.3306064,-6 -0.4327783,-7.05346 -0.4327784,-7.05346 9.7090851,-7.29781 9.709086,-7.29781 3.133688,-0.89873 L 34.486796,239 H 38.543398 42.6 l 1.126243,-1.12624 1.126243,-1.12625 6.733455,-0.21802 6.733455,-0.21803 3.840302,-4.11701 3.840302,-4.117 0.115154,-6.28873 0.115155,-6.28872 -0.182997,-1.77942 -0.182997,-1.77942 1.16075,-3.51711 1.160749,-3.5171 3.907093,-4.5143 L 76,195.87836 75.984687,194.68918 75.969374,193.5 75.036481,192.02479 74.103588,190.54957 69.801794,188.51545 65.5,186.48133 65.204217,184.42204 64.908434,182.36275 67.454217,181.20281 70,180.04288 V 179.02144 178 H 68.382015 66.76403 l -3.544122,3.11178 -3.544123,3.11178 -4.412587,-0.49736 -4.412588,-0.49736 -3.517023,-2.86442 -3.517022,-2.86442 -3.572558,-5.77452 -3.572558,-5.77452 -0.278101,-9.00625 -0.278101,-9.00624 -0.62962,-1.98376 -0.62962,-1.98375 -1.037571,0.64125 -1.037571,0.64126 0.359568,9.58913 0.359567,9.58914 -2.752012,0.97788 -2.752011,0.97788 -2.747989,-2.03522 -2.747988,-2.03522 -2.306088,-5.73429 -2.306088,-5.7343 -0.589936,-4.98109 -0.589937,-4.98109 2.146025,-2.90265 L 21,135.08099 v -2.90401 -2.904 l 1.001541,-5.38649 1.001542,-5.38649 3.095179,-6.14579 3.09518,-6.1458 0.702376,-5.95691 0.702377,-5.956914 L 30.215764,93.147293 29.833333,92 h -0.785954 -0.785954 l -2.53708,5.850017 -2.537081,5.850013 -3.445067,2.89999 -3.445067,2.89998 -1.084744,6 -1.084744,6 -0.662008,6.25 -0.662008,6.25 h 2.03917 2.03917 l 0.618034,1 0.618034,1 H 15.874741 13.631449 L 9.3534332,133.92905 5.0754178,131.8581 2.7877089,128.17905 0.5,124.5 0.52177064,116 0.54354127,107.5 3.2445932,102 5.9456451,96.5 10.522451,84.5 15.099257,72.5 19.049629,66.841052 23,61.182103 23.033269,60.341052 23.066539,59.5 l 1.736115,-2 1.736116,-2 4.456644,-3.951601 4.456644,-3.951601 4.247375,-5.650258 4.247376,-5.650259 10.030929,-9.627927 10.03093,-9.627927 2.561591,-1.67842 2.561592,-1.678419 L 75.315925,13.09109 81.5,12.498592 81.299699,9.6613782 81.099397,6.8241648 82.549699,7.4120824 84,8 85.5,8.6069888 87,9.2139776 V 7.0615343 4.9090909 l 2.508382,-2.508382 2.508382,-2.5083821 1.241618,0.77959654 L 94.5,1.4515199 l 25,0.1234429 25,0.1234429 7.69855,1.0129281 7.69855,1.0129282 2.54279,3.0219271 2.54278,3.0219272 7.75867,3.9916927 7.75866,3.991692 5.26645,1.710081 5.26646,1.710081 9.86687,9.777585 9.86688,9.777585 4.11667,6.335419 L 219,53.397671 v 1.560618 1.560617 l 1.84537,1.152456 1.84538,1.152456 1.29523,4.626112 1.29523,4.626111 2.38086,1.872787 2.38087,1.872786 1.22853,3.339193 L 232.5,78.5 l 4.98892,7.388664 4.98892,7.388665 0.76025,6.611335 0.76024,6.611336 0.62066,5.74494 0.62066,5.74494 -2.71924,5.55794 -2.71925,5.55793 1.23515,2.98192 1.23516,2.98192 -0.52053,5.74044 -0.52052,5.74044 -2.36521,5.94014 -2.36521,5.94014 -2.60731,1.45973 -2.60731,1.45972 -4.14269,-2.04964 L 223,157.25092 v 0.89072 0.89072 l 3.5,1.66903 3.5,1.66903 v 2.37197 2.37197 l -1.13522,4.50837 -1.13522,4.50836 -2.38362,1.56181 -2.38362,1.56181 -7.0354,-0.69325 -7.03541,-0.69325 -2.01834,2.56589 -2.01833,2.5659 h -4.70818 -4.70818 l -1.1101,2.94098 -1.11009,2.94097 -3.35915,1.43015 -3.35914,1.43014 -2.4738,2.68155 -2.47379,2.68155 1.47379,0.93107 1.4738,0.93108 0.8492,0.29932 0.84921,0.29933 0.25375,3.22571 0.25375,3.22571 1.50707,1.74122 1.50707,1.74122 4.13998,8.3658 4.13997,8.36579 0.0153,2.13421 0.0153,2.1342 0.73468,1.08838 0.73469,1.08837 5.36221,3.66163 5.36221,3.66162 h 1.82878 1.82877 l 0.53188,-0.86061 0.53189,-0.86061 6.27713,-1.68964 6.27713,-1.68963 2.25,-1.11874 2.25,-1.11873 v -1.20857 -1.20858 l 1.5524,-1.28838 1.55241,-1.28838 3.69759,-0.58407 3.6976,-0.58406 2.19948,-4.60031 2.19948,-4.60032 2.16828,-8.89968 2.16829,-8.89969 1.16526,-2.5 1.16527,-2.5 5.96697,-1.34255 5.96697,-1.34256 2,-0.0272 2,-0.0272 3.88848,1.62658 3.88848,1.62659 -0.58606,4.94838 -0.58606,4.94838 3.17048,2.66778 3.17048,2.66779 2.2771,1.03751 2.2771,1.03752 v 2.26806 2.26805 l -1.57143,1.57143 -1.57143,1.57143 h -3.42857 -3.42857 l 0.018,0.75 0.018,0.75 4.85026,3.17049 4.85026,3.17048 0.49535,2.59127 0.49535,2.59128 -0.74176,4.05637 -0.74176,4.05638 -2.54443,2.68186 -2.54442,2.68187 0.53565,2.73152 0.53566,2.73153 -0.62892,2.50582 -0.62892,2.50583 -2.69015,1.76265 -2.69014,1.76265 h -2.99312 -2.99313 l -1.16265,6.42888 -1.16266,6.42888 -2.24898,1.82112 -2.24899,1.82112 h -1.26771 -1.26772 l -7.8715,6.03547 -7.8715,6.03547 -4.92058,1.46129 -4.92057,1.46128 -2.21569,1.45178 -2.2157,1.45178 -4.16336,0.50183 -4.16337,0.50183 -1.95037,-1.95037 L 218,292 h -0.44848 -0.44848 l -2.47821,2.29673 -2.47822,2.29673 -8.83784,2.70327 L 194.47093,302 h -1.33117 -1.33118 l -2.92481,-1.72773 -2.92481,-1.72773 -2.22948,1.39553 -2.22948,1.39553 -5.32774,-0.13788 -5.32775,-0.13787 -5.95827,-1.67181 -5.95826,-1.6718 -1.38652,1.89188 -1.38652,1.89188 -7.32747,-0.26082 -7.32747,-0.26082 -5.5,-0.99334 -5.5,-0.99333 -1.03824,-1.39738 -1.03824,-1.39737 -1.59768,2.7838 -1.59768,2.78379 -10.86408,0.15322 L 103.5,302.07097 Z M 85,266.63486 v -1.36514 L 87.07258,262.63486 89.14516,260 h 1.844087 1.844086 l 0.364769,-1.09431 0.364769,-1.0943 4.468565,-0.86215 4.468564,-0.86214 4.23927,-0.0436 4.23928,-0.0435 5.06947,1.92625 5.06948,1.92625 -0.39148,-1.17443 -0.39147,-1.17442 -7.9158,-3.06527 -7.9158,-3.06526 -0.3248,-1.68656 L 103.85335,248 h 1.00148 1.00147 l 1.92902,-5.25 1.92902,-5.25 0.57725,-3.0471 0.57725,-3.04709 -0.93442,-1.45291 L 109,228.5 l -0.87296,1.35347 -0.87297,1.35346 -0.59824,5.05124 -0.59824,5.05123 -2.60401,3.75758 -2.604,3.75758 -5.447059,4.07355 -5.447058,4.07356 -2.727732,1.41915 -2.727731,1.41915 -2.376514,2.54413 -2.376513,2.54414 0.595128,1.55088 L 80.93723,268 H 82.968615 85 Z M 205.98469,168.75288 206,168.00576 202.38364,164.00288 198.76728,160 H 197.38364 196 v 0.54291 0.5429 l 4.1591,5.50869 4.1591,5.50868 0.82558,-1.30159 0.82559,-1.30159 0.0153,-0.74712 z M 60.09962,151.93506 59.126773,149.5 59.063386,157.125 59,164.75 l 0.75,3.375 0.75,3.375 0.286234,-8.56494 0.286234,-8.56494 z m 126.48,11.93612 0.69765,-1.12883 -5.04511,-4.62117 -5.04512,-4.62118 -3.23141,-4.88059 -3.23141,-4.88059 -8.85236,-18.11941 -8.85237,-18.11941 0.60192,3 0.60192,3 2.85637,8.7115 2.85638,8.71149 3.66376,7.28851 3.66376,7.2885 3.0294,4.5 3.0294,4.5 4.41612,5.25 4.41613,5.25 h 1.86366 1.86366 z M 143.84145,142 l -2.96336,-9.5 -2.44192,-6 -2.44192,-6 0.003,-1.69098 0.003,-1.69099 -1.06653,-0.65915 -1.06653,-0.65915 -0.55269,0.55269 -0.55268,0.55268 1.54113,6.79745 1.54113,6.79745 3.12116,8.60767 3.12116,8.60767 2.05747,2.20845 2.05748,2.20844 0.30186,-0.31611 L 146.80506,151.5 143.8417,142 Z M 80.235608,137.45217 79.74856,134.90434 81.336531,133.70217 82.924503,132.5 83.212251,118.74813 83.5,104.99626 l -0.990449,0.33202 -0.990448,0.33202 -1.019288,3.41985 -1.019287,3.41985 -1.44073,2.5 -1.440729,2.5 0.0648,7 0.0648,7 1.174211,4.25 1.17421,4.25 h 0.822784 0.822784 l -0.487048,-2.54783 z m 111.210982,-2.32008 -1.44562,-4.8679 -4.96366,-12.07534 -4.96366,-12.07534 -3.95075,-8.306755 -3.95076,-8.306755 -1.02299,-4 -1.023,-4 -1.68104,-14.5 -1.68105,-14.5 1.00328,-3.626558 1.00328,-3.626557 -0.8166,-1.321288 -0.8166,-1.321287 -0.81871,2.947845 L 165.5,48.5 l 0.11125,13.5 0.11125,13.5 2.06413,8.5 2.06414,8.5 1.56845,3 1.56846,3 0.006,1.161307 0.006,1.161303 5.06085,11.8387 5.06086,11.83869 4.53418,7.75 4.53419,7.75 h 0.35106 0.35106 l -1.44561,-4.86791 z M 62.203667,132.31392 63.138788,131.12784 62.03421,129.06392 60.929632,127 h -0.905799 -0.905799 l -0.646516,1.04609 -0.646517,1.04608 0.734112,5.20392 0.734111,5.20391 0.987661,-3 0.98766,-3 z M 119.38641,127.55246 118.76344,125.5 117.38172,123.92126 116,122.34252 l -0.0318,-1.92126 -0.0318,-1.92126 -1.28681,-1.69307 -1.2868,-1.69306 0.20268,-14.06957 0.20269,-14.069557 -0.95061,-0.587507 -0.9506,-0.587507 -0.57976,0.579762 -0.57977,0.579763 0.15843,13.270376 0.15843,13.27037 3.22148,9.79075 3.22148,9.79076 1.27108,-1.7383 1.27107,-1.7383 -0.62297,-2.05245 z M 65.280715,112.48346 69,104.96691 v -1.92444 -1.92444 L 70,100.5 71,99.881966 71.0037,96.690983 71.0074,93.5 l 1.821123,-3 1.821122,-3 1.17514,-4.69282 L 77,78.11436 V 75.55718 73 H 75.643079 74.286158 L 71.124794,81.25 67.963429,89.5 63.981714,102.34881 60,115.19763 V 117.59881 120 h 0.780715 0.780714 z m -18.666894,0.91906 0.651925,-2.59747 3.452312,-4.52278 3.452312,-4.52277 -0.497403,-1.902076 -0.497404,-1.902073 1.3467,-2.727675 L 55.868963,92.5 56.184481,90 56.5,87.5 55.567988,87.177404 54.635976,86.854808 53.403802,90.177404 52.171628,93.5 51.596752,96.130508 51.021877,98.761016 49.010939,99.286889 47,99.812761 v 3.625739 3.62574 l -1.5,3.59 -1.5,3.59001 V 115.12212 116 h 0.980948 0.980948 z M 132.63638,91.66344 131.96714,71.633804 131.48357,71.150235 131,70.666667 l -0.43146,0.431456 -0.43145,0.431457 -1.19759,8.98521 -1.19758,8.98521 0.60034,8 0.60033,8 1.08278,3.7756 1.08277,3.7756 1.09875,-0.67906 1.09874,-0.67907 z m 80.81817,6.882015 -1.57171,-3.761626 0.47525,-0.475248 0.47524,-0.475248 -1.91666,-1.916666 L 209,90 V 88.523897 87.047794 L 202.39493,72.273897 195.78986,57.5 195.25405,57 l -0.53581,-0.5 0.63954,4.879799 0.63954,4.879798 2.00134,3.238236 L 200,72.736068 v 2.509521 2.509522 l 1.37206,1.138709 1.37206,1.138709 3.32996,7.733736 3.32996,7.733735 2.44432,3.770328 2.44432,3.770332 0.36679,-0.36679 0.36678,-0.36679 z M 150.88662,91.650329 149.7527,86.800658 150.47665,68.900329 151.2006,51 h -1.45277 -1.45278 l -0.62973,8.25 -0.62973,8.25 0.56895,3.5 0.56894,3.5 -1.03506,9.239699 -1.03507,9.239699 2.11661,4.760301 2.11661,4.760301 0.84198,-3 0.84198,-3 z M 88.289802,89.519412 88.5,86.718428 l -1.135328,-0.404323 -1.135327,-0.404323 -0.41744,3.575674 -0.41744,3.575675 0.486101,0.486101 0.486101,0.486101 0.856469,-0.856469 0.856468,-0.856468 z M 186.52722,86.741618 184.93607,81.268266 183.48756,70.384133 182.03905,59.5 182.01952,54.809017 182,50.118034 180.8479,49.406 l -1.15209,-0.712034 0.58092,12.403017 0.58092,12.403017 2.02502,7.729502 2.02502,7.729501 1.12718,2.106145 1.12717,2.106145 0.47816,-0.478162 0.47816,-0.478161 z M 35.811873,85.175737 38.835257,82.351474 38.019763,81.031977 37.204269,79.71248 38.217755,76.805193 39.23124,73.897907 38.702342,73.369009 38.173444,72.84011 34.613779,76.670055 31.054115,80.5 31.027058,82.668213 31,84.836425 31.606989,86.418213 32.213978,88 h 0.287256 0.287255 z M 96,74.067808 v -1.687303 l 4.09672,-10.260201 4.09672,-10.260201 -0.51682,-0.516815 -0.51681,-0.516816 -1.66284,2.537813 -1.662841,2.537812 -3.404855,7.798951 L 93.024419,71.5 93.012209,74.872445 93,78.244889 94.5,77 96,75.755111 Z M 68.529473,64.539921 71.143254,60.079841 73.071627,54.804038 75,49.528234 V 48.764117 48 h -0.860838 -0.860839 l -3.575316,7.821531 -3.575317,7.82153 -0.672253,2.67847 L 64.783184,69 h 0.566254 0.566254 z M 49.298775,58.259183 53.763351,51.5 56.301832,46.440807 58.840313,41.381614 62.747279,36.440807 66.654245,31.5 71.449929,26.70614 76.245614,21.912281 75.654956,21.321623 75.064298,20.730965 67.594187,27.974327 60.124076,35.217689 50.562038,50.056837 41,64.895986 v 1.087191 1.087191 l 1.9171,-1.026001 1.917099,-1.026001 z M 82.232073,65 83.481094,63 H 84.740547 86 V 60.820998 58.641996 L 87.200888,55.320998 88.401777,52 h 0.727683 0.727683 L 91.428571,50.428571 93,48.857143 V 45.378912 41.90068 L 94.52568,38.95034 96.05136,36 h 1.36574 1.365741 l 1.546749,-3.865704 1.54675,-3.865705 4.29507,-3.567723 4.29507,-3.567724 -0.67877,-0.67877 -0.67877,-0.67877 -7.09588,6.353099 -7.09588,6.353098 -0.62591,2.493823 -0.62591,2.493823 L 86.873902,47.484724 80.082443,57.5 l -1.464964,4.159591 -1.464965,4.15959 0.59041,0.59041 L 78.333333,67 h 1.32486 1.324859 z M 133,57 v -4.881966 l -0.88631,-0.54777 -0.88631,-0.547769 -0.60004,2.238752 -0.60003,2.238753 -0.0137,3.083333 -0.0137,3.083334 0.63948,0.63948 0.63948,0.63948 0.86052,-0.53183 L 133,61.881966 Z m 1.87559,-14.75 1.11824,-2.75 0.94391,-5 0.94391,-5 1.55918,-4.375727 L 141,20.748547 140.96086,19.624273 140.92172,18.5 l -1.57818,3.5 -1.57818,3.5 -3.29349,9.172527 -3.29348,9.172526 0.57747,0.577474 L 132.33333,45 h 0.71202 0.71201 z M 150,35 V 25 h -1 -1 v 10 10 h 1 1 z m -35.66305,1.401125 3.83694,-6.560564 -0.72385,-0.67028 -0.72385,-0.670281 -0.46185,1.296255 -0.46184,1.296256 -3.40125,5.054234 L 109,41.200978 V 42.100489 43 l 0.75,-0.01915 0.75,-0.01916 z M 81.427831,38.504151 83.31047,35.008303 89.155235,29.433341 95,23.858379 v -0.964373 -0.964374 l -1.840697,0.985111 -1.840696,0.985111 -6.409304,8.119022 L 78.5,40.137898 78.166667,41.068949 77.833333,42 h 0.85593 0.855929 z m 43.323069,-19.751436 -0.36893,-1.106817 -2.26128,3.658814 -2.26127,3.658813 0.7218,1.167889 0.72179,1.167888 1.90842,-3.719885 1.90841,-3.719885 z"
         id="path1581"
         style="fill:#000000" /><path
         d="m 103.8148,156.96516 -3.6852,-1.94645 -0.748415,-1.21096 -0.74841,-1.21095 0.232343,-4.0484 0.232342,-4.0484 1.41111,-1.42413 1.41111,-1.42413 5.29016,-0.87889 5.29016,-0.87888 2.5,0.0505 2.5,0.0505 2.25,0.10833 2.25,0.10833 v 6.24474 6.24474 l -5.06645,3.14947 -5.06644,3.14948 -2.18356,-0.0442 -2.18355,-0.0442 z"
         id="path173"
         style="fill:#ff0000;fill-opacity:1;stroke-width:1;stroke-dasharray:none" /></g></g></svg>
