<?xml version="1.0" standalone="no"?>
<!DOCTYPE svg PUBLIC "-//W3C//DTD SVG 20010904//EN"
 "http://www.w3.org/TR/2001/REC-SVG-20010904/DTD/svg10.dtd">
<svg version="1.0" xmlns="http://www.w3.org/2000/svg"
 width="604.000000pt" height="604.000000pt" viewBox="0 0 604.000000 604.000000"
 preserveAspectRatio="xMidYMid meet">
<metadata>
Created by potrace 1.14, written by Peter Selinger 2001-2017
</metadata>
<g transform="translate(0.000000,604.000000) scale(0.100000,-0.100000)"
fill="#000000" stroke="none">
<path d="M1927 5988 c-40 -42 -48 -57 -49 -89 0 -22 -4 -39 -9 -39 -4 0 -31 9
-58 20 l-50 19 2 -56 c2 -57 2 -57 -28 -59 -207 -11 -253 -29 -373 -142 -44
-43 -137 -131 -207 -197 -77 -73 -160 -165 -213 -235 -47 -63 -109 -135 -137
-160 -110 -99 -205 -199 -205 -216 0 -11 -30 -62 -67 -114 -94 -134 -93 -133
-178 -360 -84 -223 -107 -276 -166 -392 l-39 -76 0 -170 c0 -185 -5 -165 68
-283 35 -57 186 -125 265 -120 14 1 16 5 8 19 -7 12 -22 19 -46 20 -38 2 -58
9 -51 20 3 7 11 63 22 172 2 25 7 61 10 80 4 19 8 44 10 55 19 132 31 165 70
198 89 75 103 93 148 197 58 136 88 158 92 67 1 -23 -2 -69 -7 -102 -4 -33
-10 -76 -12 -95 -2 -19 -32 -91 -66 -160 -35 -69 -65 -138 -68 -155 -2 -16
-10 -58 -17 -93 -7 -35 -14 -93 -15 -130 -2 -60 -23 -118 -51 -142 -16 -14
-36 -57 -33 -75 1 -11 4 -41 7 -66 9 -85 19 -122 62 -228 44 -105 60 -126 133
-172 24 -16 29 -16 78 3 l52 20 -5 142 c-3 77 -6 164 -7 193 -2 44 0 53 19 62
19 8 23 5 34 -32 6 -22 14 -118 16 -211 3 -105 9 -181 17 -196 7 -14 39 -69
73 -123 44 -72 78 -112 126 -151 74 -61 78 -63 173 -72 39 -3 72 -7 75 -7 5
-2 61 46 117 101 32 30 93 31 93 1 0 -15 -13 -26 -50 -42 -46 -19 -49 -23 -46
-51 2 -17 4 -39 5 -48 0 -10 7 -18 14 -18 29 0 157 -72 177 -99 35 -50 26 -73
-65 -176 -33 -37 -64 -74 -68 -82 -16 -27 -55 -151 -50 -157 3 -3 5 -73 5
-155 -1 -130 -4 -153 -19 -169 -10 -10 -45 -47 -77 -82 l-59 -64 -61 -3 c-34
-1 -96 -4 -138 -6 -65 -2 -80 -6 -96 -25 -17 -19 -29 -22 -105 -22 -131 0
-196 -25 -312 -118 -5 -4 -70 -53 -142 -107 -125 -94 -141 -111 -134 -149 1
-5 4 -56 7 -115 4 -107 12 -142 44 -216 10 -22 26 -62 36 -90 14 -39 41 -74
122 -156 l105 -107 83 0 c46 0 88 -4 94 -7 5 -3 18 -8 27 -10 10 -2 54 -16 98
-31 52 -17 108 -27 160 -30 73 -3 86 -1 152 30 l73 33 87 -44 87 -44 143 2
c79 1 143 6 143 10 0 5 3 8 8 7 10 -3 72 26 72 34 0 4 10 5 23 3 34 -6 177
-25 186 -25 5 0 38 -29 74 -65 l66 -65 216 3 217 3 30 52 c16 29 32 52 35 52
3 0 14 -11 24 -24 16 -21 51 -33 109 -41 8 -1 29 -5 45 -9 50 -11 114 -16 247
-20 l128 -4 31 39 c17 21 35 37 40 34 7 -5 83 -27 134 -39 6 -2 28 -8 50 -14
22 -6 85 -13 140 -15 95 -4 103 -3 152 25 l51 28 59 -35 c66 -40 91 -42 171
-16 31 10 111 36 177 56 106 33 125 42 165 81 24 24 50 44 57 44 7 0 30 -18
52 -40 22 -22 45 -38 53 -36 7 3 42 7 78 11 56 5 121 31 140 55 5 6 171 60
196 64 13 2 55 29 75 48 57 54 263 198 282 198 31 0 122 72 124 97 1 11 7 48
14 84 6 35 13 73 15 84 11 63 7 60 75 65 81 7 153 48 170 98 13 39 15 91 6
147 -6 38 -4 42 43 90 29 29 51 62 54 80 3 17 9 44 13 60 11 51 4 172 -10 181
-1 0 -30 20 -64 42 -34 23 -67 42 -72 42 -6 0 -11 4 -11 8 0 5 -11 14 -24 22
-14 7 -22 18 -20 25 5 13 54 27 54 16 0 -4 19 -5 42 -3 63 6 102 47 103 108 1
43 -1 48 -27 58 -15 6 -28 14 -28 18 0 4 -7 8 -15 8 -9 0 -44 24 -79 53 l-64
52 4 60 c2 33 6 73 9 88 11 56 3 62 -130 112 -32 12 -106 11 -150 -1 -22 -7
-74 -20 -116 -29 l-77 -17 -25 -66 c-15 -37 -43 -137 -63 -222 -20 -85 -47
-176 -60 -202 -13 -27 -20 -48 -16 -48 4 0 2 -4 -3 -8 -6 -4 -19 -26 -29 -49
-19 -42 -19 -42 -95 -54 -64 -10 -81 -18 -109 -45 -20 -20 -30 -38 -26 -47 8
-22 -76 -63 -191 -92 -16 -5 -34 -9 -40 -11 -5 -1 -34 -9 -63 -16 -34 -8 -54
-19 -58 -31 -5 -15 -14 -18 -47 -15 -32 2 -64 18 -137 67 -119 80 -147 111
-143 158 1 19 -5 52 -14 72 -9 20 -17 38 -18 41 -6 21 -102 206 -107 208 -5 2
-8 11 -8 19 0 16 -43 79 -67 98 -6 6 -14 38 -17 73 -2 35 -6 65 -8 66 -1 1
-21 13 -43 26 -22 13 -42 25 -44 27 -2 1 18 26 45 54 33 34 73 62 122 84 45
21 72 40 72 50 0 8 5 25 12 38 6 12 14 29 18 37 5 11 31 16 103 20 92 5 96 6
118 35 53 68 50 67 135 60 44 -4 93 -9 109 -11 79 -13 109 -4 183 52 10 7 44
167 47 217 l3 58 -74 37 c-53 27 -71 41 -65 50 6 10 24 5 79 -23 78 -41 98
-41 156 -3 26 17 41 43 79 137 26 64 49 136 51 161 2 25 7 77 11 116 6 62 3
79 -18 131 l-25 61 54 109 c50 102 53 111 48 168 -9 105 -17 183 -29 275 -2
14 -6 54 -10 90 -6 62 -39 134 -82 178 -7 7 -13 17 -13 22 0 5 -6 15 -12 22
-33 34 -107 159 -127 216 -19 50 -33 70 -72 100 -45 35 -49 42 -71 126 -21 81
-27 92 -62 118 -32 23 -40 36 -42 62 -1 24 -26 72 -87 162 -74 112 -110 154
-278 320 l-194 191 -100 31 c-57 18 -165 65 -250 109 -184 95 -170 86 -228
155 -27 32 -51 57 -55 56 -8 -2 -209 23 -237 29 -11 3 -252 6 -537 8 -430 3
-521 6 -545 18 -28 15 -29 14 -76 -35z m677 -419 c-29 -57 -38 -68 -50 -58
-21 17 -18 26 28 103 37 63 42 68 49 48 7 -17 0 -40 -27 -93z m351 55 c-3 -20
-10 -44 -15 -53 -5 -9 -18 -43 -29 -76 -17 -52 -24 -81 -36 -155 -14 -91 -45
-180 -68 -194 -10 -7 -20 -6 -31 3 -13 11 -12 20 10 84 14 40 30 81 34 92 19
46 60 161 60 169 0 11 72 166 78 166 2 0 1 -16 -3 -36z m-618 0 c4 -14 -6 -25
-87 -90 -70 -57 -77 -67 -104 -138 -27 -69 -32 -76 -57 -76 -23 0 -33 -9 -59
-57 -28 -50 -32 -67 -32 -128 1 -63 -2 -73 -27 -102 -16 -17 -37 -33 -48 -35
-22 -4 -66 -117 -64 -167 1 -41 -13 -61 -38 -54 -13 3 -21 -2 -25 -15 -12 -36
-42 -62 -74 -62 -17 0 -32 6 -35 13 -2 6 9 49 25 95 23 63 58 125 149 259 65
96 119 179 119 184 0 5 4 9 9 9 10 0 25 37 41 97 6 23 17 46 24 50 14 8 131
111 216 190 43 41 60 48 67 27z m-681 -15 c4 -7 -31 -49 -84 -103 -97 -96
-121 -122 -164 -177 -14 -19 -41 -52 -58 -74 -18 -22 -57 -89 -87 -150 -30
-60 -70 -131 -89 -158 -19 -26 -34 -51 -34 -56 0 -5 -3 -11 -8 -13 -4 -1 -27
-33 -50 -70 -41 -62 -65 -87 -102 -100 -26 -10 -23 41 4 73 14 16 27 38 31 49
3 11 10 20 15 20 4 0 10 8 13 18 4 9 33 58 66 107 33 50 97 149 142 220 72
114 102 149 233 277 83 81 154 148 158 148 4 0 10 -5 14 -11z m384 -32 c0 -8
-53 -64 -117 -126 -88 -83 -127 -130 -154 -179 -34 -61 -69 -92 -69 -60 0 11
73 109 172 230 17 21 43 54 57 74 42 56 111 94 111 61z m1097 -240 c2 -189 1
-197 -18 -197 -22 0 -21 -11 -21 205 0 208 -1 197 20 193 15 -3 17 -21 19
-201z m-642 113 c5 -8 -7 -34 -40 -89 -5 -9 -31 -53 -58 -99 -26 -45 -54 -82
-61 -82 -14 0 -29 37 -17 42 4 2 25 30 46 63 22 33 43 65 48 70 12 15 51 79
53 88 1 4 2 9 3 12 2 9 20 5 26 -5z m1009 -344 c-3 -20 -12 -51 -18 -71 -7
-20 -12 -51 -10 -68 9 -100 15 -156 19 -178 3 -13 8 -51 11 -84 6 -67 10 -101
18 -160 3 -22 7 -60 10 -85 10 -99 50 -219 132 -394 107 -227 83 -172 200
-458 25 -62 51 -124 57 -138 6 -14 11 -27 12 -30 0 -3 11 -39 24 -80 25 -80
34 -120 27 -120 -3 0 -71 110 -102 165 -6 11 -26 45 -44 75 -39 66 -100 197
-94 203 3 2 -2 10 -11 17 -8 7 -15 19 -15 27 0 7 -16 51 -36 96 -77 174 -85
193 -90 232 -2 16 -17 54 -33 85 -17 32 -45 124 -70 225 l-41 170 -1 277 c0
152 2 282 6 288 3 6 9 22 11 37 8 41 15 46 31 24 9 -14 12 -32 7 -55z m-1869
-36 c11 -17 -65 -219 -112 -298 -24 -41 -43 -77 -43 -82 0 -11 -29 -34 -36
-28 -4 4 3 41 19 103 2 6 12 30 24 55 11 25 39 88 63 140 54 120 68 138 85
110z m2142 -119 c0 -74 5 -134 18 -233 6 -46 15 -114 19 -148 12 -92 23 -160
30 -185 1 -5 8 -30 15 -55 7 -25 19 -64 27 -88 13 -41 12 -62 -4 -62 -17 0
-68 139 -88 240 -2 14 -9 39 -15 56 -22 71 -25 90 -34 289 -3 77 -8 175 -10
217 l-5 77 24 -10 c22 -10 24 -16 23 -98z m-1617 -107 c-35 -88 -67 -165 -73
-171 -5 -7 -7 -13 -3 -13 4 0 0 -13 -9 -30 -8 -16 -16 -48 -17 -70 -1 -33 -7
-45 -30 -61 -31 -22 -29 -26 -30 49 -1 51 6 77 46 164 18 40 39 90 47 111 7
20 17 37 23 37 5 0 7 3 3 6 -6 6 31 78 66 127 12 19 23 25 29 19 6 -6 -12 -66
-52 -168z m637 54 c0 -82 -3 -100 -16 -108 -32 -16 -44 4 -43 71 1 35 3 71 5
79 18 80 18 80 36 68 15 -9 18 -26 18 -110z m357 17 c-1 -89 -10 -344 -19
-540 -2 -39 3 -96 11 -128 31 -122 32 -144 14 -199 l-18 -53 -22 50 c-12 28
-31 69 -42 93 -15 34 -17 55 -12 100 4 31 8 68 9 82 2 14 7 52 11 85 8 60 8
109 2 285 -2 52 1 142 5 200 5 58 9 111 10 118 0 8 10 12 26 10 l26 -3 -1
-100z m906 -37 c0 -9 14 -43 72 -168 50 -109 73 -161 119 -265 24 -55 49 -111
55 -123 7 -13 11 -35 9 -48 -1 -16 10 -39 36 -68 23 -26 37 -50 33 -59 -3 -8
7 -43 21 -77 40 -94 27 -107 -25 -25 -43 67 -69 117 -103 195 -8 19 -26 60
-39 90 -14 30 -30 69 -37 86 -7 17 -23 37 -37 44 -13 8 -24 18 -25 24 -5 105
-7 113 -37 157 -40 58 -49 82 -56 150 -3 30 -8 66 -11 81 -4 22 -2 26 10 22 8
-4 15 -10 15 -16z m-1283 -289 c0 -13 4 -112 8 -219 3 -107 8 -247 11 -310 10
-253 10 -252 -14 -268 -24 -16 -22 -19 -43 58 -22 79 -24 93 -34 225 -9 111
-10 201 -1 260 3 28 8 64 11 80 2 17 6 46 9 65 3 19 7 54 10 77 2 23 7 47 11
53 11 18 30 5 32 -21z m-1874 -86 c-18 -53 -18 -60 -4 -85 16 -28 16 -28 -43
-83 -33 -30 -63 -55 -67 -55 -12 0 -29 60 -29 102 0 43 11 61 92 146 63 66 79
58 51 -25z m773 2 c-8 -102 -39 -207 -81 -278 -32 -54 -37 -69 -36 -124 0 -52
-3 -64 -19 -73 -15 -8 -20 -21 -20 -50 0 -50 -141 -340 -165 -340 -31 0 -17
92 46 292 33 106 62 200 64 208 2 8 8 29 15 45 6 17 11 30 10 30 -3 0 13 43
56 155 24 63 49 131 55 150 16 49 27 60 56 58 24 -2 25 -3 19 -73z m229 -252
c-4 -55 -28 -99 -48 -86 -5 3 -7 32 -3 72 3 36 6 69 6 72 0 3 11 4 25 1 23 -4
24 -7 20 -59z m494 58 c11 -7 13 -47 11 -202 -5 -407 -6 -374 22 -407 16 -20
25 -43 26 -71 1 -29 9 -50 27 -69 13 -14 31 -45 39 -68 14 -40 13 -44 -11 -80
l-26 -37 -64 194 -64 194 -3 265 c-4 284 0 308 43 281z m-1142 -19 c8 -5 10
-19 7 -37 -3 -17 -7 -39 -8 -50 -2 -11 -14 -44 -28 -74 -21 -45 -24 -59 -16
-92 10 -36 8 -40 -46 -111 -31 -40 -63 -82 -71 -93 -8 -10 -15 -24 -15 -30 0
-5 -5 -27 -11 -47 -7 -28 -15 -38 -31 -38 -17 0 -19 5 -15 28 6 36 30 95 41
103 5 4 10 35 12 70 2 35 4 66 5 69 1 3 0 15 -1 28 -2 24 17 35 72 41 3 1 11
25 18 54 17 76 58 187 69 187 3 0 11 -4 18 -8z m547 -564 c-3 -117 -5 -240 -5
-273 -1 -55 -4 -62 -35 -91 -30 -28 -33 -35 -24 -59 14 -38 12 -65 -5 -65 -9
0 -20 21 -30 58 -9 31 -20 68 -24 82 -4 14 -8 89 -10 168 -2 142 -2 143 27
190 25 42 60 132 66 171 2 12 14 20 43 30 1 1 0 -95 -3 -211z m1706 -481 c0
-5 9 -22 21 -38 11 -16 18 -29 15 -29 -5 0 30 -58 52 -85 4 -5 22 -34 41 -62
18 -29 80 -96 137 -150 57 -53 104 -100 104 -104 0 -19 -35 -39 -68 -38 -35 0
-43 7 -125 107 -120 147 -189 252 -275 421 -79 155 -179 437 -206 576 -3 17
64 -109 149 -280 85 -170 155 -314 155 -318z m-665 456 c10 -10 15 -26 12 -41
-3 -14 -1 -33 3 -41 14 -28 71 -172 72 -181 0 -3 3 -9 8 -15 7 -9 33 -84 33
-95 0 -3 15 -49 33 -102 18 -54 30 -98 27 -98 -3 0 -1 -6 5 -12 6 -7 10 -15
10 -18 0 -3 5 -25 12 -49 6 -23 9 -45 6 -49 -6 -5 -55 45 -81 83 -35 51 -147
392 -169 520 -3 17 -10 44 -15 61 -14 48 12 69 44 37z m-1465 -243 c21 -40 21
-41 2 -68 -18 -25 -33 -60 -38 -89 -1 -6 -7 -19 -13 -30 -10 -17 -10 -17 -12
2 0 11 -2 29 -4 40 -1 11 -6 44 -9 73 -3 29 -7 56 -8 60 -1 4 3 17 10 30 20
35 49 28 72 -18z m-26 -610 c-1 -63 -2 -139 -3 -169 -1 -58 -7 -64 -15 -16 -3
17 -8 39 -10 51 -7 32 -8 80 -7 209 l2 120 18 -40 c15 -33 18 -61 15 -155z
m2805 -62 c105 -114 109 -123 78 -168 -14 -20 -17 -17 -96 86 -44 60 -81 114
-81 121 0 7 11 13 25 13 18 0 40 -16 74 -52z m-1819 -1350 c8 -13 14 -25 13
-28 -1 -3 -4 -25 -8 -50 -6 -41 -41 -156 -68 -220 -12 -28 -14 -36 -16 -51 0
-5 -11 -9 -23 -7 -19 2 -22 -1 -19 -22 4 -34 20 -62 31 -55 5 3 11 1 14 -4 3
-5 18 -12 33 -16 16 -3 42 -12 58 -20 17 -7 67 -27 112 -45 55 -21 83 -38 86
-51 3 -10 2 -19 -1 -19 -4 0 -48 16 -98 34 -78 30 -102 34 -180 34 -76 0 -132
-6 -204 -23 -8 -2 -24 -4 -36 -4 -11 -1 -25 -11 -31 -24 -8 -16 -20 -23 -44
-25 -20 -2 -42 -12 -54 -25 -47 -51 -65 -81 -65 -108 0 -26 -2 -28 -42 -26
-36 2 -43 7 -54 32 -11 27 -9 31 40 81 28 29 76 65 106 80 30 15 57 30 60 34
3 3 49 38 102 77 87 65 135 116 191 203 15 25 22 57 32 154 6 63 23 116 38
116 7 0 19 -10 27 -22z"/>
</g>
</svg>
